{
  "accessors": [
    {
      "bufferView": 2,
      "componentType": 5126,
      "count": 1184,
      "max": [
        0.9999999403953552,
        -0.734296441078186,
        1.0000005960464478
      ],
      "min": [
        -1.0,
        -0.997796356678009,
        -1.0
      ],
      "type": "VEC3"
    },
    {
      "bufferView": 2,
      "byteOffset": 14208,
      "componentType": 5126,
      "count": 1184,
      "max": [
        0.9951848387718201,
        1.0,
        0.9951848387718201
      ],
      "min": [
        -0.9951848387718201,
        -0.9999991655349731,
        -0.9951848387718201
      ],
      "type": "VEC3"
    },
    {
      "bufferView": 1,
      "componentType": 5126,
      "count": 1184,
      "max": [
        1.0,
        1.0
      ],
      "min": [
        0.0,
        0.01000000536441803
      ],
      "type": "VEC2"
    },
    {
      "bufferView": 0,
      "componentType": 5125,
      "count": 1818,
      "type": "SCALAR"
    },
    {
      "bufferView": 2,
      "byteOffset": 28416,
      "componentType": 5126,
      "count": 544,
      "max": [
        0.8724997639656067,
        -0.9558522701263428,
        0.8724998235702515
      ],
      "min": [
        -0.8724998831748962,
        -1.0350261926651,
        -0.8724998235702515
      ],
      "type": "VEC3"
    },
    {
      "bufferView": 2,
      "byteOffset": 34944,
      "componentType": 5126,
      "count": 544,
      "max": [
        0.26704829931259155,
        -0.9633241891860962,
        0.2670481503009796
      ],
      "min": [
        -0.26704829931259155,
        -1.0,
        -0.26704829931259155
      ],
      "type": "VEC3"
    },
    {
      "bufferView": 1,
      "byteOffset": 9472,
      "componentType": 5126,
      "count": 544,
      "max": [
        0.9594002366065979,
        0.45940011739730835
      ],
      "min": [
        0.5406001210212708,
        0.04060003533959389
      ],
      "type": "VEC2"
    },
    {
      "bufferView": 0,
      "byteOffset": 7272,
      "componentType": 5125,
      "count": 858,
      "type": "SCALAR"
    },
    {
      "bufferView": 2,
      "byteOffset": 41472,
      "componentType": 5126,
      "count": 761,
      "max": [
        1.585574746131897,
        1.721163272857666,
        -0.07169181108474731
      ],
      "min": [
        -1.5855746269226074,
        0.22954678535461426,
        -0.7949066162109375
      ],
      "type": "VEC3"
    },
    {
      "bufferView": 2,
      "byteOffset": 50604,
      "componentType": 5126,
      "count": 761,
      "max": [
        1.0,
        1.0,
        0.9920518398284912
      ],
      "min": [
        -1.0,
        -0.9977124929428101,
        -0.8660316467285156
      ],
      "type": "VEC3"
    },
    {
      "bufferView": 1,
      "byteOffset": 13824,
      "componentType": 5126,
      "count": 761,
      "max": [
        1.0,
        1.0
      ],
      "min": [
        0.0,
        0.0
      ],
      "type": "VEC2"
    },
    {
      "bufferView": 0,
      "byteOffset": 10704,
      "componentType": 5125,
      "count": 3540,
      "type": "SCALAR"
    },
    {
      "bufferView": 2,
      "byteOffset": 59736,
      "componentType": 5126,
      "count": 70,
      "max": [
        1.5257868766784668,
        1.6664806604385376,
        -0.8165848255157471
      ],
      "min": [
        -1.5257867574691772,
        0.2893349528312683,
        -0.8165848851203918
      ],
      "type": "VEC3"
    },
    {
      "bufferView": 2,
      "byteOffset": 60576,
      "componentType": 5126,
      "count": 70,
      "max": [
        3.1350716467315465e-10,
        1.3562652156906552e-07,
        -1.0
      ],
      "min": [
        0.0,
        0.0,
        -1.0
      ],
      "type": "VEC3"
    },
    {
      "bufferView": 1,
      "byteOffset": 19912,
      "componentType": 5126,
      "count": 70,
      "max": [
        0.9811464548110962,
        0.9600541591644287
      ],
      "min": [
        0.01885369047522545,
        0.03994591161608696
      ],
      "type": "VEC2"
    },
    {
      "bufferView": 0,
      "byteOffset": 24864,
      "componentType": 5125,
      "count": 198,
      "type": "SCALAR"
    },
    {
      "bufferView": 2,
      "byteOffset": 61416,
      "componentType": 5126,
      "count": 1065,
      "max": [
        1.5474685430526733,
        1.6881623268127441,
        -0.592475414276123
      ],
      "min": [
        -1.5474684238433838,
        0.2676531672477722,
        -0.8165848851203918
      ],
      "type": "VEC3"
    },
    {
      "bufferView": 2,
      "byteOffset": 74196,
      "componentType": 5126,
      "count": 1065,
      "max": [
        1.0,
        1.0,
        1.0
      ],
      "min": [
        -1.0,
        -1.0,
        -1.0
      ],
      "type": "VEC3"
    },
    {
      "bufferView": 1,
      "byteOffset": 20472,
      "componentType": 5126,
      "count": 1065,
      "max": [
        1.0,
        1.0
      ],
      "min": [
        0.0,
        0.0
      ],
      "type": "VEC2"
    },
    {
      "bufferView": 0,
      "byteOffset": 25656,
      "componentType": 5125,
      "count": 1773,
      "type": "SCALAR"
    },
    {
      "bufferView": 2,
      "byteOffset": 86976,
      "componentType": 5126,
      "count": 504,
      "max": [
        1.5474685430526733,
        0.0,
        0.7102545499801636
      ],
      "min": [
        -1.5474684238433838,
        -0.03301724046468735,
        -0.7102546095848083
      ],
      "type": "VEC3"
    },
    {
      "bufferView": 2,
      "byteOffset": 93024,
      "componentType": 5126,
      "count": 504,
      "max": [
        1.0,
        1.0,
        1.0
      ],
      "min": [
        -1.0,
        -1.0,
        -1.0
      ],
      "type": "VEC3"
    },
    {
      "bufferView": 1,
      "byteOffset": 28992,
      "componentType": 5126,
      "count": 504,
      "max": [
        0.9879835844039917,
        0.9745403528213501
      ],
      "min": [
        0.012016531080007553,
        0.02545977756381035
      ],
      "type": "VEC2"
    },
    {
      "bufferView": 0,
      "byteOffset": 32748,
      "componentType": 5125,
      "count": 828,
      "type": "SCALAR"
    },
    {
      "bufferView": 2,
      "byteOffset": 99072,
      "componentType": 5126,
      "count": 898,
      "max": [
        1.426382303237915,
        1.2648351192474365,
        -0.6905341148376465
      ],
      "min": [
        0.38931238651275635,
        0.6909807324409485,
        -0.8209521174430847
      ],
      "type": "VEC3"
    },
    {
      "bufferView": 2,
      "byteOffset": 109848,
      "componentType": 5126,
      "count": 898,
      "max": [
        1.0,
        1.0,
        1.0
      ],
      "min": [
        -1.0,
        -1.0,
        -1.0
      ],
      "type": "VEC3"
    },
    {
      "bufferView": 1,
      "byteOffset": 33024,
      "componentType": 5126,
      "count": 898,
      "max": [
        0.0,
        0.0
      ],
      "min": [
        0.0,
        0.0
      ],
      "type": "VEC2"
    },
    {
      "bufferView": 0,
      "byteOffset": 36060,
      "componentType": 5125,
      "count": 1716,
      "type": "SCALAR"
    },
    {
      "bufferView": 2,
      "byteOffset": 120624,
      "componentType": 5126,
      "count": 28,
      "max": [
        1.5474685430526733,
        -0.3701140880584717,
        0.7102546691894531
      ],
      "min": [
        -1.5474684238433838,
        -0.3701145052909851,
        -0.7102544903755188
      ],
      "type": "VEC3"
    },
    {
      "bufferView": 2,
      "byteOffset": 120960,
      "componentType": 5126,
      "count": 28,
      "max": [
        6.8283845244820895e-09,
        -1.0,
        -2.923865451975871e-07
      ],
      "min": [
        6.8283845244820895e-09,
        -1.0,
        -2.923865451975871e-07
      ],
      "type": "VEC3"
    },
    {
      "bufferView": 1,
      "byteOffset": 40208,
      "componentType": 5126,
      "count": 28,
      "max": [
        0.9067957997322083,
        0.6929113864898682
      ],
      "min": [
        0.09320420026779175,
        0.3194902539253235
      ],
      "type": "VEC2"
    },
    {
      "bufferView": 0,
      "byteOffset": 42924,
      "componentType": 5125,
      "count": 78,
      "type": "SCALAR"
    },
    {
      "bufferView": 2,
      "byteOffset": 121296,
      "componentType": 5126,
      "count": 135,
      "max": [
        1.0,
        0.9492578506469727,
        1.0
      ],
      "min": [
        -1.0,
        -0.9749518632888794,
        -1.0
      ],
      "type": "VEC3"
    },
    {
      "bufferView": 2,
      "byteOffset": 122916,
      "componentType": 5126,
      "count": 135,
      "max": [
        0.9960078001022339,
        0.6857142448425293,
        0.9960078001022339
      ],
      "min": [
        -0.9960078001022339,
        -0.9412423372268677,
        -0.9960078001022339
      ],
      "type": "VEC3"
    },
    {
      "bufferView": 1,
      "byteOffset": 40432,
      "componentType": 5126,
      "count": 135,
      "max": [
        1.0,
        1.0
      ],
      "min": [
        0.0,
        0.01000000536441803
      ],
      "type": "VEC2"
    },
    {
      "bufferView": 0,
      "byteOffset": 43236,
      "componentType": 5125,
      "count": 372,
      "type": "SCALAR"
    },
    {
      "bufferView": 2,
      "byteOffset": 124536,
      "componentType": 5126,
      "count": 230,
      "max": [
        1.0,
        -0.866905152797699,
        1.0
      ],
      "min": [
        -1.0,
        -0.9749518632888794,
        -1.0
      ],
      "type": "VEC3"
    },
    {
      "bufferView": 2,
      "byteOffset": 127296,
      "componentType": 5126,
      "count": 230,
      "max": [
        0.9960078001022339,
        -0.08926715701818466,
        0.9960078001022339
      ],
      "min": [
        -0.9960078001022339,
        -0.9412423372268677,
        -0.9960078001022339
      ],
      "type": "VEC3"
    },
    {
      "bufferView": 1,
      "byteOffset": 41512,
      "componentType": 5126,
      "count": 230,
      "max": [
        1.0,
        0.5140461921691895
      ],
      "min": [
        0.0,
        0.01677480898797512
      ],
      "type": "VEC2"
    },
    {
      "bufferView": 0,
      "byteOffset": 44724,
      "componentType": 5125,
      "count": 576,
      "type": "SCALAR"
    }
  ],
  "asset": {
    "extras": {
      "author": "Ndeg0 (https://sketchfab.com/Andre101)",
      "license": "CC-BY-4.0 (http://creativecommons.org/licenses/by/4.0/)",
      "source": "https://sketchfab.com/3d-models/alarm-clock-f47db77d09fa4b9ca59927b02e2b33e9",
      "title": "alarm clock"
    },
    "generator": "Sketchfab-10.51.0",
    "version": "2.0"
  },
  "bufferViews": [
    {
      "buffer": 0,
      "byteLength": 47028,
      "name": "floatBufferViews",
      "target": 34963
    },
    {
      "buffer": 0,
      "byteLength": 43352,
      "byteOffset": 47028,
      "byteStride": 8,
      "name": "floatBufferViews",
      "target": 34962
    },
    {
      "buffer": 0,
      "byteLength": 130056,
      "byteOffset": 90380,
      "byteStride": 12,
      "name": "floatBufferViews",
      "target": 34962
    }
  ],
  "buffers": [
    {
      "byteLength": 220436,
      "uri": "scene.bin"
    }
  ],
  "extensionsUsed": [
    "KHR_materials_clearcoat"
  ],
  "images": [
    {
      "uri": "textures/alarm_sign_baseColor.png"
    },
    {
      "uri": "textures/material_baseColor.png"
    },
    {
      "uri": "textures/material_emissive.png"
    }
  ],
  "materials": [
    {
      "doubleSided": true,
      "emissiveFactor": [
        0.10320699999999997,
        0.5638469999999998,
        1.0
      ],
      "name": "emission",
      "pbrMetallicRoughness": {
        "baseColorFactor": [
          0.04011232605020126,
          0.5254849606953886,
          1.0,
          1.0
        ]
      }
    },
    {
      "doubleSided": true,
      "name": "Material.001",
      "pbrMetallicRoughness": {
        "baseColorFactor": [
          0.00441731,
          0.00441731,
          0.00441731,
          1.0
        ],
        "metallicFactor": 0.0,
        "roughnessFactor": 0.484926
      }
    },
    {
      "doubleSided": true,
      "name": "alarm_sign",
      "pbrMetallicRoughness": {
        "baseColorTexture": {
          "index": 0
        },
        "metallicFactor": 0.837117521710003,
        "roughnessFactor": 0.768182
      }
    },
    {
      "doubleSided": true,
      "name": "Material.002",
      "pbrMetallicRoughness": {
        "baseColorFactor": [
          0.0,
          0.0,
          0.0,
          1.0
        ],
        "metallicFactor": 0.440909,
        "roughnessFactor": 0.768182
      }
    },
    {
      "alphaMode": "BLEND",
      "doubleSided": true,
      "extensions": {
        "KHR_materials_clearcoat": {
          "clearcoatFactor": 1.0,
          "clearcoatRoughnessFactor": 0.04
        }
      },
      "name": "glass",
      "pbrMetallicRoughness": {
        "baseColorFactor": [
          1.0,
          1.0,
          1.0,
          0.026902532104621756
        ],
        "metallicFactor": 0.0,
        "roughnessFactor": 0.0
      }
    },
    {
      "doubleSided": true,
      "emissiveFactor": [
        0.1434105939756158,
        0.1434105939756158,
        0.1434105939756158
      ],
      "emissiveTexture": {
        "index": 2
      },
      "name": "material",
      "pbrMetallicRoughness": {
        "baseColorTexture": {
          "index": 1
        },
        "metallicFactor": 0.440909,
        "roughnessFactor": 0.768182
      }
    },
    {
      "doubleSided": true,
      "name": "knob",
      "pbrMetallicRoughness": {
        "baseColorFactor": [
          0.0203018,
          0.0203018,
          0.0203018,
          1.0
        ],
        "metallicFactor": 0.7177835309929314,
        "roughnessFactor": 0.484926
      }
    },
    {
      "doubleSided": true,
      "name": "knob_2",
      "pbrMetallicRoughness": {
        "baseColorFactor": [
          0.0833575,
          0.0833575,
          0.0833575,
          1.0
        ],
        "metallicFactor": 0.440909,
        "roughnessFactor": 0.768182
      }
    }
  ],
  "meshes": [
    {
      "name": "Object_0",
      "primitives": [
        {
          "attributes": {
            "NORMAL": 1,
            "POSITION": 0,
            "TEXCOORD_0": 2
          },
          "indices": 3,
          "material": 0,
          "mode": 4
        }
      ]
    },
    {
      "name": "Object_1",
      "primitives": [
        {
          "attributes": {
            "NORMAL": 5,
            "POSITION": 4,
            "TEXCOORD_0": 6
          },
          "indices": 7,
          "material": 1,
          "mode": 4
        }
      ]
    },
    {
      "name": "Object_2",
      "primitives": [
        {
          "attributes": {
            "NORMAL": 9,
            "POSITION": 8,
            "TEXCOORD_0": 10
          },
          "indices": 11,
          "material": 2,
          "mode": 4
        }
      ]
    },
    {
      "name": "Object_3",
      "primitives": [
        {
          "attributes": {
            "NORMAL": 13,
            "POSITION": 12,
            "TEXCOORD_0": 14
          },
          "indices": 15,
          "material": 1,
          "mode": 4
        }
      ]
    },
    {
      "name": "Object_4",
      "primitives": [
        {
          "attributes": {
            "NORMAL": 17,
            "POSITION": 16,
            "TEXCOORD_0": 18
          },
          "indices": 19,
          "material": 3,
          "mode": 4
        }
      ]
    },
    {
      "name": "Object_5",
      "primitives": [
        {
          "attributes": {
            "NORMAL": 21,
            "POSITION": 20,
            "TEXCOORD_0": 22
          },
          "indices": 23,
          "material": 4,
          "mode": 4
        }
      ]
    },
    {
      "name": "Object_6",
      "primitives": [
        {
          "attributes": {
            "NORMAL": 25,
            "POSITION": 24,
            "TEXCOORD_0": 26
          },
          "indices": 27,
          "material": 1,
          "mode": 4
        }
      ]
    },
    {
      "name": "Object_7",
      "primitives": [
        {
          "attributes": {
            "NORMAL": 29,
            "POSITION": 28,
            "TEXCOORD_0": 30
          },
          "indices": 31,
          "material": 5,
          "mode": 4
        }
      ]
    },
    {
      "name": "Object_8",
      "primitives": [
        {
          "attributes": {
            "NORMAL": 33,
            "POSITION": 32,
            "TEXCOORD_0": 34
          },
          "indices": 35,
          "material": 6,
          "mode": 4
        }
      ]
    },
    {
      "name": "Object_9",
      "primitives": [
        {
          "attributes": {
            "NORMAL": 37,
            "POSITION": 36,
            "TEXCOORD_0": 38
          },
          "indices": 39,
          "material": 7,
          "mode": 4
        }
      ]
    }
  ],
  "nodes": [
    {
      "children": [
        1
      ],
      "matrix": [
        1.0,
        0.0,
        0.0,
        0.0,
        0.0,
        2.220446049250313e-16,
        -1.0,
        0.0,
        0.0,
        1.0,
        2.220446049250313e-16,
        0.0,
        0.0,
        0.0,
        0.0,
        1.0
      ],
      "name": "Sketchfab_model"
    },
    {
      "children": [
        2
      ],
      "name": "root"
    },
    {
      "children": [
        3,
        6,
        8,
        11,
        13,
        15,
        17
      ],
      "matrix": [
        1.0,
        0.0,
        0.0,
        0.0,
        0.0,
        2.220446049250313e-16,
        1.0,
        0.0,
        0.0,
        -1.0,
        2.220446049250313e-16,
        0.0,
        0.0,
        0.0,
        0.0,
        1.0
      ],
      "name": "GLTF_SceneRootNode"
    },
    {
      "children": [
        4,
        5
      ],
      "matrix": [
        0.19738227128982544,
        0.0,
        0.0,
        0.0,
        0.0,
        -0.19738227128981492,
        -6.4315309668264e-08,
        0.0,
        0.0,
        6.4315309668264e-08,
        -0.19738227128981492,
        0.0,
        0.0,
        1.545845627784729,
        -0.43155020475387573,
        1.0
      ],
      "name": "button_1"
    },
    {
      "mesh": 0,
      "name": "Object_4"
    },
    {
      "mesh": 1,
      "name": "Object_5"
    },
    {
      "children": [
        7
      ],
      "name": "Plane.001_2"
    },
    {
      "mesh": 2,
      "name": "Object_7"
    },
    {
      "children": [
        9,
        10
      ],
      "name": "back lid_4"
    },
    {
      "mesh": 3,
      "name": "Object_9"
    },
    {
      "mesh": 4,
      "name": "Object_10"
    },
    {
      "children": [
        12
      ],
      "matrix": [
        -0.9999999999999734,
        1.6292068076121266e-07,
        1.6292068076121266e-07,
        0.0,
        -1.6292068076121266e-07,
        1.3322676295501878e-14,
        -0.9999999999999867,
        0.0,
        -1.6292068076121266e-07,
        -0.9999999999999867,
        1.3322676295501878e-14,
        0.0,
        0.0,
        0.9779077768325806,
        -0.07953280210494995,
        1.0
      ],
      "name": "glass_5"
    },
    {
      "mesh": 5,
      "name": "Object_12"
    },
    {
      "children": [
        14
      ],
      "name": "battery_6"
    },
    {
      "mesh": 6,
      "name": "Object_14"
    },
    {
      "children": [
        16
      ],
      "matrix": [
        1.0,
        0.0,
        0.0,
        0.0,
        0.0,
        0.0,
        1.0,
        0.0,
        0.0,
        -1.0,
        0.0,
        0.0,
        0.0,
        0.9779077172279358,
        0.18226704001426697,
        1.0
      ],
      "name": "screen_8"
    },
    {
      "mesh": 7,
      "name": "Object_16"
    },
    {
      "children": [
        18,
        19
      ],
      "matrix": [
        1.6864281009812372e-08,
        -0.2000657469034188,
        -0.0,
        0.0,
        0.2000657469034188,
        1.6864281009812372e-08,
        0.0,
        0.0,
        0.0,
        0.0,
        0.2000657469034195,
        0.0,
        -1.5289208889007568,
        0.977907657623291,
        -0.43155041337013245,
        1.0
      ],
      "name": "slider_9"
    },
    {
      "mesh": 8,
      "name": "Object_18"
    },
    {
      "mesh": 9,
      "name": "Object_19"
    }
  ],
  "samplers": [
    {
      "magFilter": 9728,
      "minFilter": 9986,
      "wrapS": 10497,
      "wrapT": 10497
    },
    {
      "magFilter": 9729,
      "minFilter": 9987,
      "wrapS": 10497,
      "wrapT": 10497
    }
  ],
  "scene": 0,
  "scenes": [
    {
      "name": "Sketchfab_Scene",
      "nodes": [
        0
      ]
    }
  ],
  "textures": [
    {
      "sampler": 0,
      "source": 0
    },
    {
      "sampler": 1,
      "source": 1
    },
    {
      "sampler": 1,
      "source": 2
    }
  ]
}
